<svg width="19" height="19" viewBox="0 0 19 19" fill="none" xmlns="http://www.w3.org/2000/svg">
<path fill-rule="evenodd" clip-rule="evenodd" d="M10.5924 10.4139C9.16044 11.8458 6.83883 11.8458 5.40691 10.4139C3.97499 8.98193 3.97499 6.66033 5.40691 5.2284C6.83883 3.79648 9.16044 3.79648 10.5924 5.2284C12.0243 6.66033 12.0243 8.98193 10.5924 10.4139ZM11.0327 11.7968C9.07252 13.2962 6.25693 13.1495 4.4641 11.3567C2.51148 9.40404 2.51148 6.23822 4.4641 4.28559C6.41672 2.33297 9.58255 2.33297 11.5352 4.28559C13.3279 6.07834 13.4747 8.89376 11.9755 10.854L15.5422 14.4207L14.5994 15.3635L11.0327 11.7968Z" fill="white"/>
</svg>
